# AST/ASF file generated using VICON BodyLanguage
# -----------------------------------------------
:version 1.10
:name VICON
:units
  mass 1.0
  length 0.45
  angle deg
:documentation
   .ast/.asf automatically generated from VICON data using
   VICON BodyBuilder and BodyLanguage model FoxedUp or BRILLIANT.MOD
:root
   order TX TY TZ RX RY RZ
   axis XYZ
   position 0 0 0  
   orientation 0 0 0 
:bonedata
  begin
     id 1 
     name lhipjoint
     direction 0.710087 -0.641647 0.289942 
     length 2.79038 
     axis 0 0 0  XYZ
  end
  begin
     id 2 
     name lfemur
     direction 0.34202 -0.939693 0  
     length 7.2706  
     axis 0 0 20  XYZ
    dof rx ry rz
    limits (-160.0 20.0)
           (-70.0 70.0)
           (-60.0 70.0)
  end
  begin
     id 3 
     name ltibia
     direction 0.34202 -0.939693 0   
     length 7.86328   
     axis 0 0 20   XYZ
    dof rx
    limits (-10.0 170.0)
  end
  begin
     id 4 
     name lfoot
     direction 0.0541246 -0.148706 0.987399   
     length 2.37542   
     axis -90 7.62852e-016 20   XYZ
    dof rx rz
    limits (-45.0 90.0)
           (-70.0 20.0)
  end
  begin
     id 5 
     name ltoes
     direction 1.53554e-011 -4.21866e-011 1   
     length 1.19593   
     axis -90 7.62852e-016 20   XYZ
    dof rx
    limits (-90.0 20.0)
  end
  begin
     id 6 
     name rhipjoint
     direction -0.675762 -0.671724 0.303533   
     length 2.66544  
     axis 0 0 0  XYZ 
  end
  begin
     id 7 
     name rfemur
     direction -0.34202 -0.939693 0   
     length 8.11844   
     axis 0 0 -20   XYZ
    dof rx ry rz
    limits (-160.0 20.0)
           (-70.0 70.0)
           (-70.0 60.0)
  end
  begin
     id 8 
     name rtibia
     direction -0.34202 -0.939693 0   
     length 7.97082   
     axis 0 0 -20   XYZ
    dof rx
    limits (-10.0 170.0)
 end
 begin
     id 9 
     name rfoot
     direction -0.0726228 -0.199474 0.977208   
     length 2.19677  
     axis -90 -7.62852e-016 -20   XYZ
    dof rx rz
    limits (-45.0 90.0)
           (-20.0 70.0)
  end
  begin
     id 10 
     name rtoes
     direction -1.53508e-011 -4.21913e-011 1   
     length 1.10438   
     axis -90 -7.62852e-016 -20   XYZ
    dof rx
    limits (-90.0 20.0)
  end
  begin
     id 11 
     name lowerback
     direction -0.00404436 0.999673 -0.0252643   
     length 2.03972   
     axis 0 0 0   XYZ
    dof rx ry rz
    limits (-20.0 45.0)
           (-30.0 30.0)
           (-30.0 30.0)
  end
  begin
     id 12 
     name upperback
     direction 0.00744643 0.999969 0.00242763   
     length 2.04273   
     axis 0 0 0   XYZ
    dof rx ry rz
    limits (-20.0 45.0)
           (-30.0 30.0)
           (-30.0 30.0)
  end
  begin
     id 13 
     name thorax
     direction 0.00846113 0.999862 0.0143204   
     length 2.03752   
     axis 0 0 0   XYZ
    dof rx ry rz
    limits (-20.0 45.0)
           (-30.0 30.0)
           (-30.0 30.0)
  end
  begin
     id 14 
     name lowerneck
     direction 0.0328213 0.990857 0.130862   
     length 1.37497   
     axis 0 0 0   XYZ
    dof rx ry rz
    limits (-20.0 45.0)
           (-30.0 30.0)
           (-30.0 30.0)
  end
  begin
     id 15 
     name upperneck
     direction -0.0302832 0.999496 0.00956452   
     length 1.35926   
     axis 0 0 0   XYZ
    dof rx ry rz
    limits (-20.0 45.0)
           (-30.0 30.0)
           (-30.0 30.0)
  end
  begin
     id 16
     name head
     direction -0.0130455 0.999856 -0.0108809  
     length 1.44454  
     axis 0 0 0   XYZ
    dof rx ry rz
    limits (-20.0 45.0)
           (-30.0 30.0)
           (-30.0 30.0)
  end
  begin
     id 17 
     name lclavicle
     direction 0.952957 0.278766 0.119006  
     length 3.10112  
     axis 0 0 0   XYZ
    dof ry rz
    limits (-20.0 10.0)
           (0.0 20.0)
  end
  begin
     id 18 
     name lhumerus
     direction 1 -4.48972e-011 -1.63238e-028   
     length 5.82845   
     axis -180 -30 -90   XYZ
    dof rx ry rz
    limits (-60.0 90.0)
           (-90.0 90.0)
           (-90.0 90.0)
  end
  begin
     id 19
     name lradius
     direction 1 -4.48959e-011 1.45401e-026   
     length 3.49691   
     axis -180 -30 -90   XYZ
    dof rx
    limits (-10.0 170.0)
  end
  begin
     id 20
     name lwrist
     direction 1 -4.48945e-011 2.98015e-026   
     length 1.74845   
     axis -1.7599e-014 90 90   XYZ
    dof ry
    limits (-180.0 0.0)
 end
  begin
     id 21 
     name lhand
     direction 1 -4.4902e-011 5.9603e-026   
     length 0.674998   
     axis -3.80318e-014 90 90   XYZ
    dof rx rz
    limits (-90.0 90.0)
           (-45.0 45.0)
  end
  begin
     id 22 
     name lfingers
     direction 1 -4.48979e-011 1.19206e-025   
     length 0.544201   
     axis -7.60636e-014 90 90   XYZ
    dof rx
    limits (0.0 90.0)
  end
  begin
     id 23
     name lthumb
     direction 0.707107 -6.34941e-011 0.707107   
     length 0.781367   
     axis -90 45 2.85299e-015   XYZ
    dof rx rz
    limits (-45.0 45.0)
           (-45.0 45.0)
  end
  begin
     id 24 
     name rclavicle
     direction -0.967632 0.241887 0.0719654   
     length 3.53012  
     axis 0 0 0   XYZ 
    dof ry rz
    limits (-10.0 20.0)
           (-20.0 0.0)
  end
  begin
     id 25 
     name rhumerus
     direction -1 -4.4897e-011 6.87619e-028  
     length 5.45859   
     axis -180 30 90   XYZ
    dof rx ry rz
    limits (-90.0 60.0)
           (-90.0 90.0)
           (-90.0 90.0)
  end
  begin
     id 26 
     name rradius
     direction -1 -4.48967e-011 1.68055e-026   
     length 3.58491   
     axis -180 30 90   XYZ
    dof rx
    limits (-10.0 170.0)
  end
  begin
     id 27 
     name rwrist
     direction -1 -4.48976e-011 2.98015e-026   
     length 1.79245   
     axis -1.7599e-014 -90 -90   XYZ
    dof ry
    limits (-180.0 0.0)
  end
  begin
     id 28
     name rhand
     direction -1 -4.48996e-011 5.9603e-026   
     length 0.683735   
     axis -3.80318e-014 -90 -90   XYZ
    dof rx rz
    limits (-90.0 90.0)
           (-45.0 45.0)
  end
  begin
     id 29
     name rfingers
     direction -1 -4.48924e-011 1.19206e-025   
     length 0.551245   
     axis -7.60636e-014 -90 -90   XYZ
    dof rx
    limits (0.0 90.0)
  end
  begin
     id 30
     name rthumb
     direction -0.707107 -6.3492e-011 0.707107   
     length 0.791481   
     axis -90 -45 -2.85299e-015   XYZ
    dof rx rz
    limits (-45.0 45.0)
           (-45.0 45.0)
  end
:hierarchy
  begin
    root lhipjoint rhipjoint lowerback
    lhipjoint lfemur
    lfemur ltibia
    ltibia lfoot
    lfoot ltoes
    rhipjoint rfemur
    rfemur rtibia
    rtibia rfoot
    rfoot rtoes
    lowerback upperback
    upperback thorax
    thorax lowerneck lclavicle rclavicle
    lowerneck upperneck
    upperneck head
    lclavicle lhumerus
    lhumerus lradius
    lradius lwrist
    lwrist lhand lthumb
    lhand lfingers
    rclavicle rhumerus
    rhumerus rradius
    rradius rwrist
    rwrist rhand rthumb
    rhand rfingers
  end

#!OML:ASF F:\VICON\USERDATA\INSTALL\rory3\rory3.ASF
:FULLY-SPECIFIED
:DEGREES
1522
root 1.00732 18.0515 -32.014 -171.108 -155.051 179.931
lowerback 1.77993 -1.64131 -2.96416
upperback -0.149668 -2.23114 2.32737
thorax -0.945397 -1.09732 4.11271
lowerneck -6.24608 8.78235 4.97033
upperneck -4.38683 11.3047 -6.40514
head 0.362847 5.56051 -2.5568
rclavicle -4.57702e-014 5.1684e-015
rhumerus -39.8991 -5.70546 -75.4517
rradius 46.9133
rwrist -85.5284
rhand -9.48148 411.287
rfingers 7.12502
rthumb 16.4829 -338.033
lclavicle -4.57702e-014 5.1684e-015
lhumerus -39.6617 -51.2756 104.232
lradius 72.8278
lwrist 82.6895
lhand -23.5474 427.473
lfingers 7.12502
lthumb -177.086 82.567
rfemur -36.3263 17.1461 14.643
rtibia 46.3692
rfoot -22.6999 10.782
rtoes -7.0192
lfemur -6.97737 9.44286 -26.6403
ltibia 17.2754
lfoot -20.6496 22.4567
ltoes 2.77181
1523
root 0.957759 18.0517 -31.9944 -171.003 -155.823 180.374
lowerback 1.83542 -1.69647 -3.23086
upperback -0.393704 -2.31216 2.26184
thorax -1.21225 -1.12635 4.20455
lowerneck -6.33708 8.78363 5.28259
upperneck -4.46421 11.2785 -6.67098
head 0.389893 5.54086 -2.69519
rclavicle -2.32578e-014 -3.97569e-016
rhumerus -40.9007 -7.56946 -73.7795
rradius 44.2506
rwrist -84.7453
rhand -9.01883 411.127
rfingers 7.12502
rthumb 16.9283 -338.156
lclavicle -2.32578e-014 -3.97569e-016
lhumerus -40.19 -48.9956 103.18
lradius 72.4515
lwrist 82.2361
lhand -23.1689 427.378
lfingers 7.12502
lthumb -176.72 82.6675
rfemur -36.5102 16.6799 14.7306
rtibia 46.4414
rfoot -22.3187 10.8677
rtoes -7.12634
lfemur -7.05436 8.97914 -26.857
ltibia 17.0777
lfoot -20.3608 22.1642
ltoes 1.45224
1524
root 0.898525 18.0577 -31.9926 -170.512 -157.118 180.702
lowerback 1.72856 -1.6999 -3.20862
upperback -0.540214 -2.31593 2.02142
thorax -1.31328 -1.12407 3.94247
lowerneck -8.05893 8.85199 5.95483
upperneck -3.39888 11.2757 -6.66436
head 1.07037 5.49713 -2.70512
rclavicle 3.23522e-014 -2.78299e-015
rhumerus -41.7137 -10.2546 -72.2581
rradius 41.709
rwrist -83.5251
rhand -8.70513 410.656
rfingers 7.12502
rthumb 17.2303 -338.6
lclavicle 3.23522e-014 -2.78299e-015
lhumerus -39.4998 -47.2019 100.844
lradius 71.9523
lwrist 80.6599
lhand -24.3765 426.771
lfingers 7.12502
lthumb -177.886 83.2597
rfemur -36.9511 16.3137 14.7572
rtibia 46.5133
rfoot -21.996 11.3678
rtoes -3.47155
lfemur -7.51497 8.38681 -26.8584
ltibia 16.7359
lfoot -19.8476 21.4899
ltoes 2.24165
1525
root 0.833712 18.055 -31.9436 -170.481 -157.794 180.852
lowerback 1.37163 -1.65171 -3.00995
upperback -0.518375 -2.23824 2.066
thorax -1.10332 -1.09146 3.86188
lowerneck -8.45862 8.89478 5.68165
upperneck -3.19303 11.3448 -6.72894
head 1.19742 5.52546 -2.65306
rclavicle 1.83876e-014 -2.94201e-014
rhumerus -42.4604 -12.1425 -70.3874
rradius 39.0432
rwrist -82.1065
rhand -8.04507 410.18
rfingers 7.12502
rthumb 17.8655 -339.019
lclavicle 1.83876e-014 -2.94201e-014
lhumerus -38.9999 -44.6323 99.1429
lradius 71.0745
lwrist 79.3594
lhand -22.3497 426.853
lfingers 7.12502
lthumb -175.929 83.2061
rfemur -36.7771 16.558 14.8513
rtibia 46.6521
rfoot -21.1447 7.32351
rtoes -3.98756
lfemur -7.06646 8.0118 -26.762
ltibia 16.1201
lfoot -19.366 21.5081
ltoes 1.64514
1526
root 0.769073 18.0487 -31.8659 -170.852 -158.155 180.929
lowerback 1.15164 -1.39641 -2.412
upperback -0.400287 -1.88351 1.96808
thorax -0.912168 -0.923201 3.40871
lowerneck -8.32768 8.63854 5.37297
upperneck -3.50129 11.0242 -6.86357
head 1.04426 5.37079 -2.67481
rclavicle 7.35503e-015 -2.18663e-014
rhumerus -43.5077 -14.0819 -68.5118
rradius 36.5559
rwrist -80.605
rhand -7.89262 409.594
rfingers 7.12502
rthumb 18.0122 -339.592
lclavicle 7.35503e-015 -2.18663e-014
lhumerus -38.7766 -42.4505 97.6611
lradius 70.2825
lwrist 78.9455
lhand -19.7963 427.698
lfingers 7.12502
lthumb -173.463 82.4229
rfemur -36.0924 17.1415 14.9857
rtibia 46.7641
rfoot -20.3597 5.14528
rtoes -2.12127
lfemur -6.03493 7.73536 -26.6115
ltibia 15.5314
lfoot -19.2072 21.7239
ltoes 0.509933
1527
root 0.696993 18.0455 -31.8072 -171.04 -158.951 181.386
lowerback 0.547656 -1.22244 -2.18039
upperback -0.135351 -1.6404 1.72311
thorax -0.333925 -0.815087 3.00269
lowerneck -8.5806 8.39619 5.35937
upperneck -3.89822 10.6736 -7.22791
head 0.961971 5.18939 -2.81026
rclavicle -6.59965e-014 0
rhumerus -44.2632 -16.1644 -67.1416
rradius 34.4789
rwrist -79.2356
rhand -7.97613 409.57
rfingers 7.12502
rthumb 17.9318 -339.623
lclavicle -6.59965e-014 0
lhumerus -38.5285 -40.8696 96.1226
lradius 69.6845
lwrist 79.9809
lhand -20.5457 426.94
lfingers 7.12502
lthumb -174.187 83.1598
rfemur -35.7522 17.0915 14.7386
rtibia 46.8815
rfoot -19.9875 3.73213
rtoes 0.23518
lfemur -5.4384 7.29391 -26.7856
ltibia 14.9708
lfoot -18.8445 21.6018
ltoes 0.116185
1528
root 0.622138 18.0512 -31.7686 -170.874 -160.087 181.468
lowerback 0.363078 -1.176 -1.83537
upperback -0.172923 -1.57365 1.82317
thorax -0.279958 -0.782735 2.90742
lowerneck -9.03711 8.2509 4.89407
upperneck -3.95175 10.5003 -7.48531
head 1.00113 5.09649 -2.80644
rclavicle 4.17448e-015 -3.69739e-014
rhumerus -44.9907 -17.384 -65.965
rradius 32.8272
rwrist -78.1323
rhand -8.26233 409.798
rfingers 7.12502
rthumb 17.6564 -339.421
lclavicle 4.17448e-015 -3.69739e-014
lhumerus -38.4238 -38.9086 94.8722
lradius 69.0335
lwrist 80.6992
lhand -21.5229 426.454
lfingers 7.12502
lthumb -175.131 83.6223
rfemur -35.6189 16.7331 14.9276
rtibia 46.9388
rfoot -20.0832 2.70322
rtoes 0.455786
lfemur -5.29255 6.69163 -26.5076
ltibia 14.6151
lfoot -18.3502 21.3877
ltoes -1.5685
1529
root 0.548447 18.0512 -31.7248 -170.765 -161.281 181.508
lowerback 0.334937 -1.17995 -1.46134
upperback -0.303078 -1.57556 2.06226
thorax -0.400767 -0.781758 2.94434
lowerneck -9.40053 8.07396 4.0895
upperneck -3.89935 10.3308 -7.61885
head 1.02997 5.01118 -2.70423
rclavicle -3.0911e-014 -7.95139e-016
rhumerus -45.7365 -18.2733 -64.7415
rradius 31.427
rwrist -77.0603
rhand -8.1651 409.702
rfingers 7.12502
rthumb 17.75 -339.508
lclavicle -3.0911e-014 -7.95139e-016
lhumerus -38.0541 -37.0378 93.7966
lradius 67.9566
lwrist 81.9251
lhand -22.5641 425.679
lfingers 7.12502
lthumb -176.136 84.3758
rfemur -35.3429 16.1763 15.2077
rtibia 46.9808
rfoot -20.3272 2.21186
rtoes 1.74193
lfemur -5.22598 5.9696 -26.1628
ltibia 14.5653
lfoot -18.1403 21.1039
ltoes -2.11401
1530
root 0.470317 18.0535 -31.6787 -170.643 -162.465 181.527
lowerback 0.172775 -1.10576 -1.01625
upperback -0.469709 -1.47189 2.20718
thorax -0.494348 -0.728762 2.84137
lowerneck -9.29309 7.83202 3.68397
upperneck -4.03631 10.0455 -7.97825
head 0.950102 4.87351 -2.77471
rclavicle 2.5842e-015 -7.95139e-015
rhumerus -46.39 -19.0425 -63.9118
rradius 30.2407
rwrist -76.2665
rhand -8.0996 409.539
rfingers 7.12502
rthumb 17.813 -339.665
lclavicle 2.5842e-015 -7.95139e-015
lhumerus -37.4918 -35.1044 92.477
lradius 66.723
lwrist 83.1151
lhand -23.706 425.892
lfingers 7.12502
lthumb -177.239 84.1462
rfemur -34.9923 15.7837 15.4959
rtibia 46.9809
rfoot -20.8079 1.55144
rtoes 1.66168
lfemur -5.43858 5.4489 -25.7933
ltibia 15.0122
lfoot -17.7573 20.7734
ltoes -3.14424
1531
root 0.388824 18.058 -31.6358 -170.614 -163.594 181.587
lowerback -0.00843937 -0.943288 -0.615028
upperback -0.580293 -1.25241 2.24563
thorax -0.52616 -0.619385 2.65223
lowerneck -9.24486 7.53921 3.57139
upperneck -4.08278 9.66778 -8.42032
head 0.926716 4.68336 -2.92534
rclavicle -1.33186e-014 1.59028e-014
rhumerus -46.9593 -19.5994 -63.7714
rradius 29.794
rwrist -76.3059
rhand -8.76238 409.185
rfingers 7.12502
rthumb 17.1752 -340.076
lclavicle -1.33186e-014 1.59028e-014
lhumerus -36.3873 -32.6149 90.4144
lradius 65.6091
lwrist 83.0884
lhand -23.0705 429.098
lfingers 7.12502
lthumb -176.625 80.9491
rfemur -34.5512 15.3719 15.8055
rtibia 46.9719
rfoot -21.2739 1.64104
rtoes 3.147
lfemur -5.77368 5.50125 -25.4197
ltibia 15.794
lfoot -17.7509 19.7505
ltoes -3.61666
1532
root 0.303163 18.0704 -31.6012 -170.663 -164.943 181.565
lowerback 0.033018 -0.931279 -0.24781
upperback -0.714889 -1.23203 2.33645
thorax -0.694016 -0.608748 2.54153
lowerneck -9.17454 7.28367 3.46614
upperneck -4.12628 9.33801 -8.74865
head 0.895173 4.51907 -3.0379
rclavicle -4.35338e-014 2.38542e-015
rhumerus -47.2012 -19.3079 -64.4898
rradius 30.0957
rwrist -77.5108
rhand -9.47118 409.19
rfingers 7.12502
rthumb 16.4928 -340.129
lclavicle -4.35338e-014 2.38542e-015
lhumerus -36.1463 -31.1167 89.3293
lradius 64.4547
lwrist 83.1889
lhand -24.9082 426.179
lfingers 7.12502
lthumb -178.4 83.8473
rfemur -33.9653 14.8142 16.2789
rtibia 46.8893
rfoot -21.7973 1.49784
rtoes 4.49074
lfemur -6.26946 5.89383 -24.8684
ltibia 16.9436
lfoot -17.1426 18.4903
ltoes -5.63815
